<svg id="Слой_1" data-name="Слой 1" xmlns="http://www.w3.org/2000/svg" viewBox="0 0 80 63.25"><defs><style>.cls-1{fill:#fff;}.cls-2{fill:#67b261;}.cls-3{fill:#7bb95e;}.cls-4{fill:#519c61;}.cls-5{fill:#8bbf5f;}.cls-6{fill:#4d875b;}.cls-7{fill:#52aa62;}.cls-8{fill:#77b75f;}.cls-9{fill:#8dc064;}.cls-10{fill:#8fc05e;}.cls-11{fill:#a0c873;}.cls-12{fill:#010204;}.cls-13{fill:#f3e647;}.cls-14{fill:#77b65f;}.cls-15{fill:#52b2dc;}</style></defs><title>logo</title><polygon class="cls-2" points="73.33 12.3 64.05 4.56 62.72 19.35 73.33 12.3"/><polygon class="cls-3" points="73.49 1.49 64.05 4.56 73.33 12.3 73.49 1.49"/><polygon class="cls-4" points="78.97 7.39 76.59 3.87 73.49 1.49 73.33 12.3 78.97 7.39"/><polygon class="cls-5" points="77.38 0.9 76.79 0 73.48 1.5 76.57 3.87 77.38 0.9"/><polygon class="cls-6" points="80 11.79 78.97 7.39 73.33 12.3 79.86 11.79 80 11.79"/><polygon class="cls-7" points="76.97 18.1 73.32 12.3 79.99 11.79 76.97 18.1"/><polygon class="cls-4" points="69.14 24.72 76.97 18.1 73.33 12.3 62.71 19.33 69.14 24.72"/><polygon class="cls-7" points="62.35 25.76 62.72 19.35 69.14 24.73 62.35 25.76"/><polygon class="cls-8" points="57.68 23.4 62.35 25.76 62.72 19.35 57.68 23.4"/><polygon class="cls-9" points="57.46 27.21 58.56 28.18 62.35 25.76 57.68 23.4 57.46 27.21"/><polygon class="cls-10" points="57.27 13.02 62.72 19.35 57.68 23.4 57.27 13.02"/><polygon class="cls-11" points="64.05 4.56 62.72 19.35 57.22 12.97 64.05 4.56"/><polygon class="cls-12" points="21.54 54.66 9.84 31.03 9.9 13.23 21.49 35.36 21.54 54.66"/><polygon class="cls-12" points="41.98 54.62 53.36 30.94 53.22 13.16 41.93 35.33 41.98 54.62"/><polygon class="cls-12" points="31.61 13.28 21.47 35.44 21.53 54.68 31.67 33.46 31.61 13.28"/><polygon class="cls-12" points="31.61 13.27 41.96 35.38 41.99 54.62 31.64 33.44 31.61 13.27"/><polygon class="cls-13" points="21.53 54.68 21.73 54.26 21.71 34.91 21.49 35.34 21.28 34.95 21.36 54.3 21.53 54.68"/><polygon class="cls-14" points="41.98 54.62 42.19 54.2 42.17 34.84 41.95 35.27 41.72 34.88 41.8 54.24 41.98 54.62"/><polyline class="cls-15" points="31.44 33.94 31.66 33.5 31.87 33.93 31.85 13.79 31.61 13.27 31.38 13.78"/></svg>